<?xml version="1.0" encoding="UTF-8"?>
<svg id="Capa_1" data-name="Capa 1" xmlns="http://www.w3.org/2000/svg" xmlns:xlink="http://www.w3.org/1999/xlink" viewBox="0 0 40.57 40.57">
  <defs>
    <style>
      .cls-1 {
        fill: none;
      }

      .cls-2 {
        fill: #69a8b7;
      }

      .cls-3 {
        fill: #10121b;
      }

      .cls-4 {
        fill: #c3d1d8;
      }

      .cls-5 {
        fill: #fff5ee;
      }

      .cls-6 {
        fill: #0a3d49;
      }

      .cls-7 {
        clip-path: url(#clippath);
      }
    </style>
    <clipPath id="clippath">
      <circle class="cls-1" cx="20.28" cy="20.29" r="19.52"/>
    </clipPath>
  </defs>
  <g class="cls-7">
    <g>
      <path class="cls-3" d="M15.88,33.1c-3.97,0-7.95-2.6-10.92-7.16-4.38-6.72-7.68-7.06-8.29-7.06-2.85.08-3.92,1.14-5.06,2.26-.96.95-1.96,1.94-3.96,2.18-4.1.51-12.38-1.72-12.73-1.82-.31-.08-.49-.4-.4-.71s.39-.49.71-.4c.08.02,8.4,2.27,12.28,1.79,1.61-.2,2.39-.97,3.29-1.86,1.18-1.17,2.53-2.5,5.85-2.59h0c1.03,0,4.68.55,9.27,7.58,2.78,4.26,6.44,6.68,10.05,6.64,4.11-.05,8.07-3.12,11.79-9.12.09-.12,5.7-7.46,12.37-2.61.26.19.31.55.13.8-.19.26-.54.32-.8.13-5.75-4.18-10.54,2.06-10.74,2.32-3.91,6.32-8.2,9.57-12.73,9.62-.04,0-.07,0-.11,0Z"/>
      <path class="cls-6" d="M8.45,24.38c-3.8,0-6.74-2.53-7.62-3.39-.26-.18-.31-.52-.14-.79.18-.26.56-.32.82-.14.03.02.1.08.12.1.89.87,4.12,3.65,8.09,2.96,3.53-.62,6.71-3.8,9.47-9.46.08-.18,2.15-4.76,6-5.49,2.21-.43,4.5.51,6.81,2.77.74.72,1.44,1.57,2.15,2.61,1,1.46,3.11,4.26,6.02,6.72.24.21.27.57.07.81-.21.24-.57.27-.81.07-3.01-2.54-5.19-5.44-6.23-6.94-.67-.97-1.33-1.77-2.01-2.44-2.02-1.98-3.96-2.81-5.78-2.46-3.25.62-5.16,4.81-5.18,4.85-2.94,6.03-6.4,9.43-10.32,10.11-.5.09-.99.13-1.47.13Z"/>
      <path class="cls-4" d="M24.59,28.15c-5.45,0-8.94-2.98-11.79-5.41-1.32-1.13-2.47-2.1-3.56-2.56-3.48-1.44-6.95.41-6.99.43-.28.15-.63.05-.78-.23-.15-.28-.05-.63.23-.78.16-.09,3.99-2.14,7.98-.48,1.26.52,2.46,1.55,3.86,2.74,2.92,2.49,6.56,5.6,12.33,5.08,5.43-.53,8.88-3.16,11.93-5.47.56-.43,1.11-.85,1.66-1.24.26-.19.62-.13.8.13.19.26.13.62-.13.8-.54.39-1.08.8-1.64,1.22-3.17,2.41-6.75,5.14-12.52,5.7-.48.04-.95.06-1.4.06Z"/>
      <path class="cls-2" d="M-4.25,22.53c-1.45,0-2.62-.32-3.39-.78-1.63-.96-3.74-2.09-5.63-2.26-1.61-.15-8.89.95-11.55,1.38-.32.05-.61-.16-.66-.48-.05-.31.16-.61.48-.66.4-.06,9.76-1.58,11.84-1.39,2.13.19,4.39,1.39,6.12,2.42,1.24.73,5.64,1.67,11.03-2.77.09-.07,6.4-4.56,11.96.37.18.17,3.97,3.71,7.95.48.16-.11.31-.22.49-.35,1.43-1.05,4.77-3.51,9.05-2.1.42.18,1.08.59,2,1.15,1.93,1.18,4.84,2.97,6.46,3.33,2.06.45,5.14.8,8.04-1.4.12-.09,2.81-2,9.41-.52h.06c.81.13,2.98.47,5.85.53.32,0,.57.27.56.59,0,.32-.28.55-.59.56-2.95-.06-5.17-.4-6-.53l-.1-.02c-6.05-1.36-8.49.3-8.51.32-3.28,2.48-6.69,2.1-8.98,1.59-1.81-.4-4.7-2.17-6.82-3.47-.81-.5-1.52-.93-1.81-1.06-3.66-1.2-6.67,1.01-7.96,1.96-.2.15-.37.27-.5.35-4.72,3.85-9.36-.52-9.4-.56-4.84-4.29-10.25-.47-10.48-.31-3.3,2.71-6.5,3.63-8.93,3.63Z"/>
    </g>
  </g>
  <path class="cls-5" d="M20.28,40.57C9.1,40.57,0,31.47,0,20.28S9.1,0,20.28,0s20.28,9.1,20.28,20.28-9.1,20.28-20.28,20.28ZM20.28,1.54C9.95,1.54,1.54,9.95,1.54,20.28s8.41,18.75,18.75,18.75,18.75-8.41,18.75-18.75S30.62,1.54,20.28,1.54Z"/>
</svg>