<?xml version="1.0" encoding="UTF-8"?>
<svg id="Capa_1" data-name="Capa 1" xmlns="http://www.w3.org/2000/svg" xmlns:xlink="http://www.w3.org/1999/xlink" viewBox="0 0 82.37 82.37">
  <defs>
    <style>
      .cls-1 {
        fill: none;
      }

      .cls-2 {
        fill: #fbf4ed;
      }

      .cls-3 {
        clip-path: url(#clippath);
      }
    </style>
    <clipPath id="clippath">
      <circle class="cls-1" cx="41.18" cy="41.18" r="39.62"/>
    </clipPath>
  </defs>
  <g class="cls-3">
    <g>
      <path class="cls-2" d="M32.25,64.43c-8.03,0-16.07-4.39-22.11-12.08-8.9-11.32-15.63-11.9-16.89-11.9-5.86.13-8.04,1.92-10.35,3.82-1.95,1.6-3.96,3.26-7.97,3.67-8.31.85-25.06-2.9-25.77-3.06-.63-.14-1.03-.77-.88-1.4.14-.63.77-1.03,1.4-.88.17.04,17.09,3.82,25.02,3.02,3.31-.34,4.89-1.64,6.73-3.15,2.4-1.97,5.12-4.21,11.81-4.36,2.06,0,9.43.92,18.76,12.79,5.59,7.12,12.97,11.19,20.27,11.19.08,0,.17,0,.25,0,8.36-.11,16.41-5.28,23.94-15.37.15-.18,11.5-13.76,24.98-5.62.55.33.73,1.05.4,1.6-.33.55-1.05.73-1.6.4-11.73-7.09-21.52,4.56-21.93,5.06-7.95,10.66-16.62,16.15-25.75,16.27-.09,0-.19,0-.28,0Z"/>
      <path class="cls-2" d="M63.34,50.53c-1.17,0-2.37-.1-3.59-.32-7.71-1.37-14.42-7.18-19.94-17.26-.05-.1-3.64-7.02-10.05-8.26-4.11-.79-8.6.9-13.31,5.02-.93.82-1.8,1.71-2.82,2.8-1.52,1.62-4.96,5.01-10.99,9.54-.52.39-1.25.28-1.64-.23-.39-.52-.28-1.25.23-1.64,5.89-4.42,9.22-7.7,10.68-9.26,1.07-1.14,1.98-2.08,2.99-2.96,5.28-4.63,10.43-6.51,15.31-5.56,7.55,1.46,11.5,9.14,11.66,9.46,5.14,9.4,11.3,14.81,18.28,16.05,9.41,1.67,17.52-4.64,19.78-6.62l.26-.2c.56-.33,1.27-.15,1.6.4.3.51.18,1.16-.28,1.52-2.24,1.95-9.38,7.51-18.19,7.52Z"/>
      <path class="cls-2" d="M49.93,51.49c-10.9,0-17.95-3.32-23.69-6.02-2.7-1.27-5.03-2.37-7.29-2.89-7.33-1.68-16.65.37-16.75.39-.62.14-1.26-.25-1.4-.88-.14-.63.25-1.25.88-1.4.4-.09,9.93-2.19,17.78-.39,2.5.57,4.94,1.72,7.76,3.05,5.98,2.82,13.43,6.32,25.35,5.73,10.49-.57,17.28-3.59,23.28-6.26,1.54-.69,3.03-1.35,4.51-1.93.6-.24,1.28.05,1.52.65.24.6-.05,1.28-.65,1.52-1.45.58-2.91,1.23-4.42,1.9-6.18,2.75-13.19,5.87-24.11,6.46-.95.05-1.87.07-2.77.07Z"/>
      <path class="cls-2" d="M-8.62,47.84c-2.95,0-5.35-.71-6.93-1.73-3.3-2.13-7.58-4.62-11.41-4.99-3.29-.31-18.02,2.1-23.43,3.05-.66.11-1.24-.31-1.35-.95-.11-.64.31-1.24.95-1.35.81-.14,19.81-3.48,24.06-3.08,4.33.42,8.93,3.08,12.45,5.35,2.51,1.62,11.4,3.66,22.33-6.12.18-.15,13.04-10.1,24.36.83.36.37,8.02,8.18,16.07,1.05.33-.24.62-.48.99-.77,2.91-2.33,9.71-7.78,18.45-4.66.75.35,1.62.87,2.71,1.52,2.78,1.65,6.98,4.13,10.46,4.96.63.15,1.02.78.87,1.41-.15.63-.79,1.01-1.41.87-3.82-.91-8.21-3.51-11.11-5.22-1.01-.6-1.88-1.12-2.43-1.38-7.39-2.64-13.48,2.24-16.08,4.33-.41.33-.75.6-1.01.78-9.63,8.54-19.07-1.14-19.17-1.24-9.8-9.45-20.73-1.05-21.2-.68-6.71,6-13.21,8.02-18.17,8.02Z"/>
    </g>
  </g>
  <path class="cls-2" d="M41.18,82.37C18.47,82.37,0,63.89,0,41.18S18.47,0,41.18,0s41.18,18.47,41.18,41.18-18.47,41.18-41.18,41.18ZM41.18,3.12C20.19,3.12,3.12,20.19,3.12,41.18s17.08,38.07,38.07,38.07,38.07-17.08,38.07-38.07S62.17,3.12,41.18,3.12Z"/>
</svg>