<?xml version="1.0" encoding="UTF-8"?>
<svg id="Capa_1" data-name="Capa 1" xmlns="http://www.w3.org/2000/svg" xmlns:xlink="http://www.w3.org/1999/xlink" viewBox="0 0 761.98 621.16">
  <defs>
    <style>
      .cls-1, .cls-2, .cls-3, .cls-4, .cls-5 {
        fill: none;
      }

      .cls-2 {
        stroke: #0a3d49;
      }

      .cls-2, .cls-3, .cls-4, .cls-5 {
        stroke-linecap: round;
        stroke-miterlimit: 10;
        stroke-width: 12px;
      }

      .cls-3 {
        stroke: #fff5ee;
      }

      .cls-4 {
        stroke: #c3d1d8;
      }

      .cls-5 {
        stroke: #69a8b7;
      }

      .cls-6 {
        letter-spacing: 0em;
      }

      .cls-7, .cls-8 {
        fill: #fff5ee;
      }

      .cls-9 {
        letter-spacing: -.05em;
      }

      .cls-10 {
        clip-path: url(#clippath);
      }

      .cls-8 {
        font-family: HelveticaNeue-Bold, 'Helvetica Neue';
        font-size: 100px;
        font-weight: 700;
      }
    </style>
    <clipPath id="clippath">
      <ellipse class="cls-1" cx="538.42" cy="211.14" rx="157.38" ry="155.1"/>
    </clipPath>
  </defs>
  <g>
    <g>
      <g class="cls-10">
        <g>
          <path class="cls-2" d="M695.8,236.52c-46.22,27.21-60.47-22.47-60.47-22.47-63.97-158.37-144.73-104.44-176.09-26.28-31.98,79.72-67.3,79.72-71.2,79.72"/>
          <path class="cls-5" d="M391.75,267.49s37.95-106.88,99.26-106.8c0,0,19.34-.08,33.33,17.57,6.13,6.96,10.96,15.08,14.43,23.85,18.79,47.59,44.55,96.84,157.03,34.41"/>
          <path class="cls-4" d="M391.75,267.49s30.13-18.91,57.22-5.86c27.09,13.04,50.69,65.74,117.82,65.24,59.42-2.99,103.25-87.47,129.01-90.34"/>
          <path class="cls-3" d="M377.29,262.38s12.88,11.08,55.89,10.36c42.99-.72,76.49-43.36,110.5-48.59,34.01-5.24,47.28,5.85,75.98,19.28,25.24,11.81,54.46-1.61,76.14-6.91"/>
        </g>
      </g>
      <path class="cls-7" d="M538.49,374.92c-90.31,0-163.78-73.47-163.78-163.78s73.47-163.78,163.78-163.78,163.78,73.47,163.78,163.78-73.47,163.78-163.78,163.78ZM538.49,59.87c-83.41,0-151.27,67.86-151.27,151.27s67.86,151.27,151.27,151.27,151.27-67.86,151.27-151.27-67.86-151.27-151.27-151.27Z"/>
    </g>
    <path class="cls-7" d="M221.2,47.38c-86.82,1.19-160.28,74.65-161.48,161.47-1.26,92.12,73.94,167.31,166.05,166.05,86.82-1.19,160.28-74.66,161.47-161.48,1.27-92.12-73.93-167.31-166.04-166.04ZM220.09,362.37c-65.22-1.44-120.57-44.64-140.22-103.8,20.49-6.36,67.24-7.47,64.96,23.98-1.28,17.81-6.99,26.37,4.05,43.85,12.17,19.28,49.32,26.66,70.56,25.88.84-.03,2.58.52,2.42-.69-16.04-7.01-31.9-22.02-29.04-41.2,2.84-19.13,27.11-31.78,13.9-55.01-9.45-16.62-30.89-17.38-47.65-18.26-.78-.04-1.9.45-1.71-.69,22.49-9.45,30.73-32.05,36.57-53.98,4.48-16.86,5.88-32.93,5.05-50.44-.68-14-5.48-31.79-4.15-45.1,1.12-11.18,9.35-12.98,17.66-6.58,13.25,10.22,26.76,42.7,33.8,58.48,13,29.2,23.92,69.85,49.5,89.94,19.63,15.4,46.91,22.41,70.2,30.44l1.13-.52c-20.31,61.2-78.74,105.19-147.01,103.68Z"/>
  </g>
  <text class="cls-8" transform="translate(55.99 518.74)"><tspan x="0" y="0">Ocean </tspan><tspan class="cls-9" x="337.1" y="0">V</tspan><tspan class="cls-6" x="394.59" y="0">oices</tspan></text>
  <g>
    <path class="cls-7" d="M63.81,596.16v-37.73h16.22c2.05,0,3.81.39,5.28,1.15,1.47.77,2.6,1.84,3.41,3.22.81,1.38,1.21,2.94,1.21,4.7,0,1.87-.33,3.41-.99,4.62s-1.5,2.15-2.53,2.83c-1.03.68-2.07,1.16-3.14,1.46v.33c.73.11,1.53.35,2.39.71.86.37,1.69.9,2.48,1.6.79.7,1.43,1.62,1.92,2.78.5,1.15.74,2.58.74,4.26,0,1.91-.45,3.62-1.35,5.14-.9,1.52-2.14,2.72-3.71,3.6-1.58.88-3.37,1.32-5.39,1.32h-16.55ZM70.08,574.38h7.98c1.03,0,1.94-.24,2.75-.71.81-.48,1.44-1.15,1.9-2.01.46-.86.69-1.82.69-2.89,0-1.69-.41-2.99-1.24-3.91-.83-.92-2.03-1.38-3.6-1.38h-8.47v10.89ZM70.08,590.82h8.58c1.1,0,2.07-.26,2.92-.77.84-.51,1.49-1.21,1.95-2.09.46-.88.69-1.83.69-2.86,0-1.17-.25-2.18-.74-3.03-.49-.84-1.16-1.49-2.01-1.95-.84-.46-1.78-.69-2.81-.69h-8.58v11.38Z"/>
    <path class="cls-7" d="M94.5,596.16l11.71-37.73h8.31l11.77,37.73h-6.82l-9.24-31.51h-.22l-8.97,31.51h-6.54ZM100.88,587.96v-5h18.76v5h-18.76Z"/>
    <path class="cls-7" d="M143.56,596.71c-2.13,0-4.02-.38-5.69-1.15-1.67-.77-2.98-1.9-3.93-3.38-.95-1.49-1.43-3.31-1.43-5.47v-2.25h6.27v1.92c0,1.8.5,3.12,1.51,3.96,1.01.84,2.25,1.27,3.71,1.27s2.71-.43,3.74-1.29c1.03-.86,1.54-2.17,1.54-3.93v-27.94h6.66v28.27c0,2.2-.5,4.04-1.51,5.53-1.01,1.49-2.37,2.6-4.1,3.36-1.72.75-3.68,1.13-5.88,1.13h-.88Z"/>
    <path class="cls-7" d="M162.15,596.16l11.71-37.73h8.3l11.77,37.73h-6.82l-9.24-31.51h-.22l-8.96,31.51h-6.54ZM168.53,587.96v-5h18.75v5h-18.75Z"/>
    <path class="cls-7" d="M245.25,596.71c-2.05,0-3.95-.3-5.69-.91-1.74-.6-3.26-1.57-4.56-2.89-1.3-1.32-2.31-3.03-3.03-5.14-.71-2.11-1.07-4.67-1.07-7.67v-5.56c0-3.01.37-5.57,1.1-7.7.73-2.13,1.75-3.85,3.05-5.17,1.3-1.32,2.81-2.28,4.54-2.89s3.59-.91,5.61-.91h.99c2.82,0,5.25.56,7.29,1.68,2.04,1.12,3.6,2.8,4.7,5.03,1.1,2.24,1.65,5.04,1.65,8.42h-6.43c0-2.27-.24-4.13-.72-5.58-.48-1.45-1.28-2.52-2.42-3.22-1.14-.7-2.69-1.04-4.67-1.04-1.1,0-2.12.17-3.05.5-.93.33-1.75.87-2.45,1.62-.7.75-1.25,1.77-1.65,3.05-.4,1.28-.61,2.9-.61,4.84v8.2c0,1.94.2,3.57.61,4.87.4,1.3.95,2.33,1.65,3.08.7.75,1.51,1.29,2.45,1.62.94.33,1.95.5,3.05.5,2.97,0,5.05-.78,6.24-2.34,1.19-1.56,1.79-4.04,1.79-7.45h6.21c0,3.23-.55,5.96-1.65,8.19-1.1,2.24-2.66,3.94-4.67,5.12-2.02,1.17-4.44,1.76-7.26,1.76h-.99Z"/>
    <path class="cls-7" d="M263.62,596.16l11.71-37.73h8.3l11.77,37.73h-6.82l-9.24-31.51h-.22l-8.96,31.51h-6.54ZM270,587.96v-5h18.75v5h-18.75Z"/>
    <path class="cls-7" d="M302.23,596.16v-37.73h6.76v32.18h16.55l.83,5.55h-24.14Z"/>
    <path class="cls-7" d="M336.05,596.16v-5.12h7.7v-27.5h-7.7v-5.11h22.22v5.11h-7.7v27.5h7.7v5.12h-22.22Z"/>
    <path class="cls-7" d="M369,596.16v-37.73h24.31l-.77,5.44h-16.88v10.83h14.9v5.23h-14.9v16.23h-6.66Z"/>
    <path class="cls-7" d="M414.37,596.71c-2.05,0-3.95-.3-5.69-.91-1.74-.6-3.26-1.57-4.57-2.89-1.3-1.32-2.31-3.03-3.03-5.14-.71-2.11-1.07-4.67-1.07-7.67v-5.56c0-3.01.37-5.57,1.1-7.7.73-2.13,1.75-3.85,3.05-5.17,1.3-1.32,2.81-2.28,4.54-2.89,1.72-.6,3.59-.91,5.61-.91h.99c2.05,0,3.95.31,5.69.94,1.74.62,3.25,1.59,4.54,2.92,1.28,1.32,2.28,3.03,3,5.14.71,2.11,1.07,4.67,1.07,7.67v5.56c0,2.97-.36,5.51-1.07,7.62-.71,2.11-1.71,3.82-3,5.14-1.28,1.32-2.79,2.29-4.51,2.92s-3.61.93-5.67.93h-.99ZM414.81,591.43c1.1,0,2.14-.17,3.11-.5.97-.33,1.82-.87,2.53-1.62.71-.75,1.27-1.78,1.68-3.08.4-1.3.6-2.92.6-4.87v-8.2c0-1.94-.2-3.56-.6-4.84-.4-1.28-.96-2.3-1.68-3.05-.71-.75-1.56-1.29-2.53-1.62s-2.01-.5-3.11-.5-2.13.17-3.08.5-1.79.87-2.5,1.62c-.71.75-1.27,1.77-1.68,3.05-.4,1.28-.61,2.9-.61,4.84v8.2c0,1.94.2,3.57.61,4.87.4,1.3.96,2.33,1.68,3.08.71.75,1.55,1.29,2.5,1.62.95.33,1.98.5,3.08.5Z"/>
    <path class="cls-7" d="M461.84,596.49c-1.03,0-1.99-.19-2.89-.58-.9-.39-1.61-1.09-2.15-2.12-.53-1.03-.8-2.49-.8-4.4,0-1.61-.17-2.98-.52-4.1-.35-1.12-.81-2.02-1.38-2.7-.57-.68-1.22-1.18-1.95-1.51-.73-.33-1.48-.49-2.25-.49h-7.37v15.56h-6.65v-37.73h16.77c2.05,0,3.9.41,5.53,1.24,1.63.82,2.92,1.97,3.85,3.44.93,1.47,1.4,3.21,1.4,5.22,0,2.35-.61,4.37-1.82,6.08-1.21,1.7-2.8,2.76-4.79,3.16v.27c1.32.37,2.41,1.01,3.27,1.93s1.51,2.03,1.95,3.33c.44,1.3.66,2.69.66,4.15,0,2.46.2,4.18.6,5.17.4.99,1.14,1.63,2.2,1.93v1.54c-.48.22-1.04.38-1.68.47-.64.09-1.31.14-2.01.14ZM442.53,575.37h8.25c1.98,0,3.48-.58,4.51-1.73s1.54-2.59,1.54-4.32-.49-3.09-1.48-4.1c-.99-1.01-2.4-1.51-4.24-1.51h-8.58v11.66Z"/>
    <path class="cls-7" d="M469.7,596.16v-37.73h6.54l10.61,21.34,1.93,4.23h.22v-25.57h6.21v37.73h-6.54l-10.95-21.67-1.59-3.74-.22.06v25.35h-6.21Z"/>
    <path class="cls-7" d="M505.18,596.16v-5.12h7.7v-27.5h-7.7v-5.11h22.22v5.11h-7.7v27.5h7.7v5.12h-22.22Z"/>
    <path class="cls-7" d="M534.22,596.16l11.71-37.73h8.3l11.77,37.73h-6.82l-9.24-31.51h-.22l-8.96,31.51h-6.54ZM540.6,587.96v-5h18.75v5h-18.75Z"/>
    <path class="cls-7" d="M617.71,596.71c-1.94,0-3.79-.21-5.55-.63-1.76-.42-3.32-1.08-4.68-1.98-1.36-.9-2.43-2.07-3.22-3.52-.79-1.45-1.18-3.2-1.18-5.25v-.58c0-.2.02-.39.05-.58h6.33c-.04.18-.05.37-.05.55v.55c0,1.36.33,2.48.99,3.38.66.9,1.6,1.57,2.83,2.01,1.23.44,2.69.66,4.37.66s3.12-.18,4.29-.55c1.17-.37,2.08-.96,2.72-1.79.64-.82.96-1.9.96-3.22,0-1.25-.39-2.25-1.18-3-.79-.75-1.82-1.36-3.11-1.81-1.28-.46-2.69-.88-4.21-1.27-1.52-.38-3.05-.82-4.59-1.29-1.54-.48-2.95-1.11-4.24-1.9-1.28-.79-2.32-1.84-3.11-3.16-.79-1.32-1.18-2.99-1.18-5,0-2.38.64-4.34,1.92-5.88,1.28-1.54,2.98-2.69,5.09-3.44,2.11-.75,4.43-1.13,6.96-1.13s4.77.37,6.82,1.1c2.05.73,3.69,1.88,4.92,3.44,1.23,1.56,1.84,3.58,1.84,6.08v.71h-6.21v-.77c0-1.14-.3-2.11-.91-2.92-.61-.81-1.46-1.42-2.56-1.84-1.1-.42-2.4-.63-3.91-.63-1.39,0-2.63.17-3.71.5-1.08.33-1.93.84-2.53,1.54-.61.7-.91,1.61-.91,2.75,0,1.21.38,2.17,1.15,2.89.77.71,1.8,1.28,3.08,1.71,1.28.42,2.7.82,4.24,1.18,1.54.37,3.08.78,4.62,1.24,1.54.46,2.95,1.08,4.23,1.87,1.28.79,2.33,1.83,3.14,3.13.81,1.3,1.21,2.96,1.21,4.98,0,2.86-.64,5.16-1.93,6.9-1.28,1.74-3.03,3.01-5.25,3.79-2.22.79-4.74,1.18-7.56,1.18Z"/>
    <path class="cls-7" d="M650.98,596.71c-4,0-7.11-1.11-9.35-3.33-2.24-2.22-3.35-5.31-3.35-9.27v-25.69h6.54v25.69c0,2.31.6,4.11,1.79,5.39,1.19,1.28,2.85,1.93,4.98,1.93s3.83-.64,5-1.93c1.17-1.28,1.76-3.08,1.76-5.39v-25.69h6.54v25.69c0,3.96-1.12,7.05-3.36,9.27-2.24,2.22-5.35,3.33-9.35,3.33h-1.21Z"/>
    <path class="cls-7" d="M698.61,596.49c-1.03,0-1.99-.19-2.89-.58-.9-.39-1.61-1.09-2.15-2.12-.53-1.03-.8-2.49-.8-4.4,0-1.61-.17-2.98-.52-4.1-.35-1.12-.81-2.02-1.38-2.7-.57-.68-1.22-1.18-1.95-1.51-.73-.33-1.48-.49-2.25-.49h-7.37v15.56h-6.65v-37.73h16.77c2.05,0,3.9.41,5.53,1.24,1.63.82,2.92,1.97,3.85,3.44.93,1.47,1.4,3.21,1.4,5.22,0,2.35-.61,4.37-1.82,6.08-1.21,1.7-2.8,2.76-4.79,3.16v.27c1.32.37,2.41,1.01,3.27,1.93s1.51,2.03,1.95,3.33c.44,1.3.66,2.69.66,4.15,0,2.46.2,4.18.6,5.17.4.99,1.14,1.63,2.2,1.93v1.54c-.48.22-1.04.38-1.68.47-.64.09-1.31.14-2.01.14ZM679.3,575.37h8.25c1.98,0,3.48-.58,4.51-1.73s1.54-2.59,1.54-4.32-.49-3.09-1.48-4.1c-.99-1.01-2.4-1.51-4.24-1.51h-8.58v11.66Z"/>
  </g>
</svg>