<?xml version="1.0" encoding="UTF-8"?>
<svg id="Capa_1" data-name="Capa 1" xmlns="http://www.w3.org/2000/svg" viewBox="0 0 611.96 908.62">
  <defs>
    <style>
      .cls-1 {
        fill: none;
        stroke: #fdf0e7;
        stroke-miterlimit: 10;
        stroke-width: .74px;
      }

      .cls-2 {
        opacity: .5;
      }
    </style>
  </defs>
  <g class="cls-2">
    <g>
      <path class="cls-1" d="M38.89,30.27v9.36c0,1.07.79,1.98,1.85,2.13l1.95.27c.94.13,1.68.86,1.83,1.79l.29,1.83c.09.54.37,1.02.8,1.35l.78.62c.56.44.8,1.17.6,1.86h0c-.21.74.08,1.53.73,1.95l2.34,1.53c.59.39.9,1.1.77,1.8l-.1.53c-.12.63.12,1.28.62,1.69l1.1.9c.5.41.8,1.02.8,1.67v3.79c0,.5.17.98.49,1.37l12.79,15.56c.1.12.22.23.34.33l4.78,3.72c.53.41.83,1.04.83,1.7v5.19c0,.54-.2,1.06-.57,1.46l-1.75,1.9c-.37.4-.57.92-.57,1.46v13.62c0,.44.14.88.39,1.24l8.19,11.62,4.88,7.02c.25.36.39.79.39,1.23v7.6c0,.4.11.8.33,1.14l6.18,9.89c.05.08.1.16.13.25l3.04,6.69c.13.28.19.58.19.89v3.31c0,.54.2,1.05.56,1.45l2.17,2.39c.36.4.56.91.56,1.45v6.72c0,.64.28,1.25.78,1.66l4.38,3.65c.49.41.78,1.02.78,1.66v2.34c0,.39.11.77.31,1.11l4.32,7.21c.2.33.31.72.31,1.11v24.36c0,.47.15.93.44,1.3l6.6,8.7c.14.18.24.38.32.6.54,1.57,2.85,8.35,2.85,9.23,0,.72-3.31,6.85-5.12,10.13-.61,1.11-.13,2.5,1.03,3l6.34,2.77c1.11.49,1.6,1.79,1.09,2.89l-3.16,6.74c-.48,1.01-.1,2.22.87,2.78l5.77,3.33c.67.38,1.08,1.1,1.08,1.87v.66c0,1.19.96,2.16,2.16,2.16h1.29c1.19,0,2.16.96,2.16,2.16v1.65c0,.99.67,1.85,1.63,2.09l2,.5c.96.24,1.63,1.1,1.63,2.09v2.75c0,1.19.96,2.16,2.16,2.16h.63c.9,0,1.7.56,2.02,1.4l.93,2.47c.32.84,1.12,1.4,2.02,1.4h6.75c.8,0,1.54.45,1.91,1.16l3.07,5.91c.37.71,1.11,1.16,1.91,1.16h10.04c.73,0,1.4.36,1.8.97l6.95,10.57c.4.61,1.08.97,1.8.97h8.54c1.19,0,2.16.96,2.16,2.16v8.17c0,.74.38,1.43,1.01,1.83l3.24,2.03c.63.39,1.01,1.08,1.01,1.83v2.39c0,.99.67,1.85,1.63,2.09l2,.5c.96.24,1.63,1.1,1.63,2.09v8.02c0,1.31,1.16,2.31,2.45,2.13l8.14-1.13c.78-.11,1.55.21,2.02.84l3.55,4.73c.4.53.53,1.21.36,1.85l-1.64,6.16c-.36,1.37.67,2.71,2.08,2.71h.97c1.19,0,2.16.96,2.16,2.16v2.27c0,1.05.76,1.95,1.8,2.13l8.25,1.38c1.04.17,1.8,1.07,1.8,2.13v1.37c0,.28-.06.56-.16.82l-1.42,3.46c-.41,1-.02,2.15.92,2.69l5.85,3.37c.67.38,1.08,1.1,1.08,1.87v2.19c0,.73-.37,1.42-.99,1.81l-11.07,7.09c-.5.32-.84.83-.95,1.41l-1.09,5.71c-.04.19-.1.38-.19.56l-1.61,3.23c-.15.3-.23.63-.23.96v1.95c0,1.19.96,2.16,2.16,2.16h4.57c1.42,0,2.45,1.35,2.08,2.72l-.88,3.23c-.22.79.04,1.63.65,2.18l3.63,3.23c.76.67.94,1.78.45,2.67l-.76,1.34c-.69,1.22-2.34,1.47-3.36.51l-3.39-3.22c-.7-.67-1.76-.78-2.59-.29l-3.53,2.12-4.78,2.99c-.32.2-.58.48-.76.81l-1.63,3.05c-.44.82-.3,1.83.35,2.51l6.72,7c.07.07.13.14.19.22l2.79,3.82c.75,1.03,2.23,1.19,3.18.33l2.66-2.38c1.16-1.04,3.02-.54,3.49.95l.49,1.53c.28.89-.04,1.86-.8,2.41l-5.57,3.98c-.65.47-1.51.53-2.23.17l-9.09-4.59c-.6-.3-1.02-.86-1.14-1.51l-1.33-6.88c-.07-.38-.25-.73-.51-1.02l-6.38-7.18c-.66-.75-1.75-.94-2.63-.47l-7.72,4.14-4.8,2.64c-.99.54-2.23.23-2.84-.71-1.05-1.62-2.6-3.78-3.22-3.57-.76.25-7.02,1.29-9.83,1.75-.83.14-1.66-.23-2.13-.93l-2.32-3.47c-.52-.78-1.47-1.13-2.37-.88l-4.09,1.14c-.22.06-.45.09-.68.08l-3.23-.16c-1.48-.07-2.59,1.32-2.18,2.74l.42,1.48c.04.16.07.32.08.48l.26,4.97c.03.66.37,1.26.9,1.64l7.22,5.15c.11.08.22.14.34.2l6.68,3.11c.65.3,1.11.91,1.22,1.62l1.24,7.91c.14.89.82,1.6,1.71,1.78l15.15,3.03c.89.18,1.58.9,1.71,1.8l1.34,9.11c.06.38,0,.77-.13,1.12l-3.9,9.62c-.45,1.11.09,2.37,1.21,2.81l10.11,3.99c.25.1.52.15.79.15h7.36c.3,0,.6.06.88.19l5.28,2.35c.15.07.31.12.47.15l5.98,1.15c1.25.24,2.02,1.51,1.66,2.73l-1.14,3.84c-.41,1.38.63,2.77,2.07,2.77h15.04c1.19,0,2.16.96,2.16,2.16v2.75c0,.65.29,1.26.79,1.67l3.83,3.14c1.22,1,.99,2.93-.43,3.61l-5.42,2.61c-.28.13-.52.33-.72.56l-1.86,2.23c-.66.79-.67,1.94-.02,2.74l2.51,3.1c.41.5,1.02.8,1.67.8h10.15c.64,0,1.25.28,1.66.78l5.29,6.35c.41.49,1.02.78,1.66.78h8.42c.69,0,1.34-.33,1.75-.89l2.54-3.52c.63-.87,1.8-1.15,2.75-.65l3.84,2.02c.49.26,1.05.32,1.58.17l4.09-1.14c.64-.18,1.16-.64,1.42-1.26l1.77-4.31c.09-.21.2-.4.35-.57l3.4-4.01c.77-.91,2.23-.09,1.85,1.04l-.53,1.59-1.75,5.83c-.15.49-.46.91-.89,1.19l-2.62,1.71c-1.6,1.04-1.15,3.5.71,3.91l6.02,1.34c.53.12,1,.43,1.31.88l6.51,9.46c.17.25.39.45.64.61l5.51,3.41c.63.39,1.02,1.09,1.02,1.83v2.79c0,.79.43,1.51,1.11,1.89l7.92,4.37c.34.19.62.46.81.79l4.56,7.69c.26.45.68.78,1.17.95l8.54,2.85c.37.12.78.14,1.16.06l6.68-1.53c1.74-.4,3.18,1.37,2.44,3l-2.34,5.12c-.39.86-.18,1.87.52,2.5l6.74,6.05c.33.3.57.7.66,1.14l1.62,7.3c.13.58.5,1.09,1.01,1.39l4.06,2.39c.47.27.81.71.97,1.23l2.96,9.75c.06.2.09.41.09.63v15.67c0,.31.07.62.2.9l3.32,7.19c.27.59.26,1.28-.03,1.87l-4.25,8.5c-.15.3-.37.56-.63.76l-2.68,2.01c-.54.41-.86,1.05-.86,1.72v5.33c0,.33-.08.66-.23.96l-2.88,5.75c-.12.25-.2.52-.22.8l-.93,12.08c-.02.22-.07.44-.15.65l-3.27,8.03c-.15.36-.19.76-.13,1.14l1.23,7.97,1.63,9.14c0,.05.02.11.03.16l2.54,9.83c.05.19.13.38.23.55l2.92,4.96c.14.25.34.46.56.63l6.22,4.67c.79.59,1.87.57,2.64-.04l2.57-2.05c.65-.52.94-1.37.75-2.18l-1.24-5.22c-.06-.24-.15-.47-.29-.67l-7.04-10.88-5.78-9.44c-.3-.49-.39-1.09-.25-1.65l2.03-8.11c.04-.15.09-.3.16-.44l4.75-9.49c.06-.11.1-.23.14-.36l2.51-8.53c.35-1.19,1.79-1.65,2.77-.89h0c.56.44.8,1.17.62,1.85l-1.64,6.02c-.02.06-.04.12-.06.18l-3.26,8.8-1.5,4.79c-.1.32-.12.65-.07.98l1.6,10.12c.17,1.08,1.12,1.86,2.22,1.82l4.08-.17c1.09-.05,2.04.73,2.22,1.8l1.3,7.82c.02.12.03.24.03.35v3.25c0,.66.31,1.29.83,1.7l5.8,4.53c.42.33.94.49,1.47.45l4.63-.31c1.24-.08,2.3.9,2.3,2.15v2.68c0,1.19.96,2.16,2.16,2.16h7.59c.69,0,1.33.33,1.74.88l9.75,13.33c1.04,1.42.03,3.43-1.74,3.43h0c-.57,0-1.11-.28-1.44-.75l-2.39-3.41c-.43-.62-1.16-.97-1.92-.91l-5.14.37c-.56.04-1.08.3-1.46.72l-2.2,2.47c-.76.85-.72,2.15.09,2.96l3.1,3.1c.4.4.95.63,1.52.63h4.77c.35,0,.7.09,1.01.25l7.82,4.14c.32.17.59.41.78.71l4.22,6.33c.4.6,1.07.96,1.79.96h3.12c.57,0,1.12-.23,1.52-.63l2.29-2.29c.92-.92,2.43-.82,3.23.2l1.47,1.89c.41.53,1.04.83,1.7.83h3.54c.37,0,.74.1,1.07.28l4.1,2.33c.67.38,1.09,1.1,1.09,1.87v10.36c0,.73.37,1.4.97,1.8l13.33,8.74c.4.26.91.23,1.28-.07l.43-.35c.71-.58,1.77-.08,1.77.84v2.77c0,.76.4,1.46,1.05,1.85l6.23,3.74c.37.22.67.56.85.96l2.52,5.54c.22.49.61.87,1.1,1.08l2.05.89c.51.22.92.64,1.13,1.16l1.73,4.22c.27.66.91,1.09,1.63,1.09h.73c.66,0,1.26.37,1.56.95l1.3,2.5c.26.5.71.88,1.25,1.06l8.8,2.84c.36.12.69.33.95.62l8.02,9c.44.5.63,1.17.51,1.83l-1.45,7.75c-.15.8.16,1.62.81,2.11l5.98,4.54c.54.41.85,1.04.85,1.72v7.89c0,.53.19,1.04.54,1.43l3.52,3.95c.6.67.71,1.64.3,2.43l-2.23,4.27c-.34.65-.33,1.43.04,2.07l8.53,15.01s.05.09.07.13l3.69,7.66c.25.51.68.9,1.21,1.09l5.5,1.98c.92.33,1.94,0,2.5-.8l3.42-4.92c.42-.61,1.13-.96,1.87-.92l3.57.17c1.07.05,2.02-.69,2.22-1.74l1.31-6.74c.14-.75.67-1.36,1.39-1.62l2.82-1.01c.29-.1.55-.26.77-.48l7.55-7.26c.21-.2.38-.45.49-.72l1.97-4.67c.24-.58.73-1.03,1.33-1.22l4.97-1.58c.64-.2,1.15-.7,1.38-1.34l2.04-5.78c.08-.23.12-.47.12-.72v-17.71c0-.43.13-.84.36-1.2l2.04-3.06c.46-.69.48-1.59.05-2.3l-4.43-7.39c-.34-.57-.93-.95-1.6-1.03l-3.7-.44c-.38-.04-.71-.28-.86-.63l-.43-.97c-.18-.4-.57-.65-1.01-.64l-3.29.05c-.68.01-1.33-.3-1.74-.84l-5.56-7.23c-.3-.38-.45-.86-.45-1.34l.15-11.29c0-.48-.15-.94-.43-1.32l-2.4-3.2c-.27-.36-.65-.63-1.08-.76l-3.28-1.03c-1.17-.37-1.8-1.64-1.38-2.8l1.98-5.38c.16-.44.18-.93.04-1.38l-2.11-6.87c-.45-1.45-2.22-2-3.41-1.05l-2.54,2.03c-.74.59-1.78.63-2.56.1l-7.09-4.82c-.29-.2-.53-.46-.69-.77l-4.57-8.57c-.33-.61-.93-1.03-1.61-1.12l-3.63-.49c-1.7-.23-2.46-2.25-1.34-3.55l.21-.24c.28-.32.43-.73.43-1.15v-4.41c0-.6-.25-1.18-.7-1.59l-4.78-4.4c-.49-.45-1.17-.65-1.82-.54l-4.26.73c-.35.06-.68.21-.97.43l-2.39,1.87c-.83.65-1.07,1.81-.56,2.73l2.27,4.14c.12.23.21.48.24.73l.82,5.82c.08.57-.07,1.14-.42,1.6l-3.67,4.85c-.44.59-1.16.91-1.89.85l-4.3-.34c-.51-.04-.98-.26-1.34-.61l-5.6-5.53c-.22-.22-.34-.52-.32-.83v-.17c.06-.91,1.14-1.35,1.82-.74l5.18,4.71c.26.24.58.41.93.5l1.59.4c.92.23,1.89-.17,2.37-.99l.55-.92c.44-.73.4-1.65-.09-2.35l-2.38-3.37c-.15-.22-.34-.4-.56-.55l-11-7.33c-.29-.19-.53-.45-.69-.75l-9.04-16.41c-.15-.26-.23-.56-.26-.86l-.73-8.66c-.04-.47.08-.94.33-1.34l10.39-16.27c.45-.7.45-1.6.01-2.3l-5.18-8.31c-.13-.2-.22-.42-.27-.65l-1.66-7.16c-.21-.9-.96-1.56-1.88-1.66l-7.14-.73c-.22-.02-.44-.08-.65-.17l-3.19-1.4c-.76-.34-1.27-1.08-1.29-1.92l-.28-10.49c0-.33-.09-.64-.24-.93l-7.51-14.49c-.33-.63-.32-1.39.02-2.01l2.49-4.62c.3-.56.34-1.23.1-1.83l-1.2-2.97c-.31-.77-1.04-1.3-1.88-1.35l-3.95-.23c-.35-.02-.7.05-1.02.19l-4.53,2.06c-.92.42-2.02.14-2.62-.67l-1.81-2.43c-.21-.28-.35-.61-.4-.96l-.8-5.24c-.08-.53-.36-1.01-.77-1.35l-2.89-2.35c-.31-.25-.54-.58-.67-.95l-.92-2.61c-.19-.53-.58-.97-1.08-1.21l-1.79-.88c-1.16-.57-1.56-2.02-.86-3.11l2.89-4.47c.35-.53.44-1.19.25-1.8l-1.86-6.11c-.12-.4-.12-.83,0-1.23l1.53-5.3c.18-.64.06-1.33-.33-1.86l-5.87-8.1c-.47-.65-.54-1.52-.18-2.24l4.22-8.37c.13-.26.21-.53.23-.82l.47-6.71c.05-.75-.29-1.47-.9-1.9l-5.14-3.68c-.41-.29-.71-.73-.83-1.22l-.96-3.73c-.21-.82.08-1.69.74-2.22l1.72-1.38c.59-.47.89-1.21.79-1.96l-.21-1.66c-.13-1.01-.94-1.79-1.95-1.88l-2.31-.2c-.51-.04-1.02.1-1.44.4l-2.98,2.14c-.95.68-2.28.48-2.98-.46l-1.5-2c-.46-.61-.56-1.41-.27-2.11l2.71-6.6c.05-.13.09-.27.12-.41l.81-4.19c.14-.74-.11-1.5-.67-2.01l-9.28-8.38c-.05-.05-.1-.1-.15-.15l-9.97-10.94c-.2-.21-.47-.34-.76-.35l-.87-.03c-.5-.02-.94.3-1.08.78l-1.25,4.36c-.12.43-.11.9.04,1.32l3.03,8.41c.11.3.28.56.5.79l7.23,7.3c.39.4.62.94.62,1.5l.07,7.19c0,.51-.17,1-.49,1.39l-1.28,1.56c-.88,1.07-2.53,1.04-3.37-.06l-8.81-11.5c-.15-.19-.26-.4-.33-.63-.46-1.41-2.23-6.72-2.23-6.51,0,.2.48-6.38.67-9.02.05-.68-.23-1.34-.74-1.78l-7.57-6.55c-.55-.47-.82-1.19-.73-1.91l.58-4.48c.07-.51.32-.99.71-1.33l3.39-3.01c.34-.3.57-.7.67-1.14l.93-4.14c.16-.69-.04-1.42-.52-1.94l-3.07-3.31c-.22-.24-.5-.43-.8-.54l-6.68-2.6c-.24-.09-.5-.14-.75-.15l-5.2-.07c-.59,0-1.15-.26-1.55-.69l-1.61-1.74c-.57-.62-.73-1.5-.41-2.28l.36-.87c.37-.9.09-1.94-.69-2.53l-1.14-.87c-.46-.35-.76-.86-.83-1.44-.22-1.73-.7-5.37-.89-5.37-.15,0-1.04-.89-1.75-1.62-.57-.59-.75-1.44-.48-2.21l.46-1.3c.07-.19.16-.37.28-.54l1.88-2.63c.29-.4.43-.9.4-1.39l-.24-3.77c-.03-.42-.17-.81-.42-1.15l-2.04-2.74c-.16-.22-.37-.41-.61-.55l-4.37-2.67c-.13-.08-.25-.17-.36-.27l-4.26-4.02-5.57-5.49c-.07-.07-.14-.15-.2-.23l-3-3.92c-.11-.14-.2-.3-.27-.47l-1.98-4.68c-.27-.63-.81-1.09-1.47-1.25l-2.93-.72c-.07-.02-.14-.03-.21-.04l-3.06-.43c-1.4-.2-2.23-1.66-1.69-2.96l.86-2.06c.1-.24.25-.47.43-.66l2.31-2.43c.56-.59.74-1.44.47-2.21l-1-2.83c-.04-.12-.06-.24-.06-.36v-1.19c0-.61.27-1.18.73-1.57h0c.53-.45.8-1.13.72-1.83l-.34-2.74c-.07-.58-.38-1.11-.84-1.46l-3.95-2.97c-.82-.62-1.09-1.73-.64-2.66l1.41-2.92c.1-.21.17-.44.2-.68l.43-3.53c.12-.96-.42-1.88-1.31-2.25l-4.18-1.74c-.8-.33-1.33-1.12-1.33-1.99v-3.03c0-.92.59-1.74,1.46-2.04l1.22-.41c.89-.3,1.48-1.15,1.46-2.09l-.04-2.02c0-.27-.06-.53-.16-.78l-1.29-3.13c-.09-.22-.22-.43-.38-.61l-.91-1.02c-.57-.64-1.46-.88-2.27-.61l-6.89,2.23c-.5.16-1.05.14-1.53-.08l-1.63-.72c-.3-.13-.57-.33-.78-.58l-7.05-8.36c-.45-.54-.62-1.26-.44-1.94l.98-3.7c.1-.36.1-.74,0-1.11l-1.68-6.31c-.17-.62-.6-1.14-1.18-1.4l-.4-.18c-1.38-.63-1.69-2.45-.6-3.5l.29-.28c.3-.29.48-.67.52-1.09l.34-3.35c.11-1.06-.58-2.05-1.62-2.31l-1.37-.34c-.54-.13-1.1-.06-1.58.21-1.03.58-2.75,1.58-2.75,1.75s-2.23.67-3.58.96c-.64.13-1.3-.03-1.8-.44l-2.06-1.67c-.69-.56-.97-1.5-.69-2.35l1.15-3.49c.15-.45.14-.93-.01-1.38l-1.86-5.36c-.33-.95-1.28-1.55-2.29-1.43l-1.62.19c-.58.07-1.11.37-1.47.84l-2.9,3.84c-.09.12-.2.23-.32.33l-.29.22c-1.11.87-2.75.45-3.31-.85l-2.18-5.07c-.2-.46-.23-.97-.09-1.45l2.49-8.7c.31-1.08-.26-2.22-1.32-2.61l-2.75-1.03c-.84-.32-1.4-1.12-1.4-2.02v-4.14c0-.7.34-1.37.92-1.77l.98-.68c.54-.38.88-.97.92-1.63l.36-5.6c.05-.7-.26-1.38-.81-1.82l-15.77-12.57c-.41-.32-.68-.78-.78-1.29l-.72-3.89c-.13-.72-.63-1.33-1.31-1.6l-8.97-3.65c-.13-.05-.27-.09-.41-.12l-4.95-.93c-1.1-.21-1.85-1.21-1.75-2.32l.13-1.37c.01-.12.01-.23,0-.35l-.73-10.89c0-.08-.02-.16-.03-.25l-.91-4.93c-.22-1.21-1.41-1.99-2.6-1.71l-.63.14c-.74.17-1.33.71-1.57,1.43l-1.68,5.1c-.38,1.15-1.62,1.76-2.76,1.36l-5.94-2.09c-.48-.17-.89-.51-1.15-.95l-1.98-3.4c-.19-.33-.29-.7-.29-1.08v-10.62c0-1.08-.81-2-1.88-2.14l-3.54-.45c-1.02-.13-1.81-.96-1.88-1.99l-.39-5.81c-.04-.65-.38-1.24-.91-1.62l-6.14-4.33c-.62-.44-.96-1.16-.91-1.92l.26-3.67c.02-.34.13-.68.31-.97l1.5-2.46c.23-.37.34-.8.31-1.24l-.32-5.92c-.02-.37.05-.73.21-1.06l5.86-12.06c.39-.81.24-1.78-.38-2.43l-6.36-6.66c-.45-.48-.67-1.13-.58-1.78l.73-5.24c.06-.44.26-.86.57-1.18l5.15-5.47c.47-.5.67-1.19.55-1.86l-.46-2.53c-.08-.42-.28-.81-.57-1.11l-4.98-5.14c-.36-.37-.57-.86-.6-1.37l-.49-8.4c-.03-.43-.18-.84-.44-1.18l-6.32-8.3s-.06-.08-.08-.12l-4.12-6.26c-.6-.91-.42-2.13.41-2.83l1.44-1.21c.49-.41.77-1.01.77-1.65v-5.79c0-.36.09-.71.26-1.03l3.34-6.16c.04-.08.09-.16.14-.23l3.76-5.23c.38-.53.5-1.2.33-1.83l-1.27-4.61-1.89-5.82c-.35-1.07.19-2.23,1.23-2.66l1.06-.43c.81-.33,1.34-1.12,1.34-1.99v-8.08c0-.09,0-.18.02-.26l1.02-8.29c.09-.69-.17-1.39-.69-1.86l-11.02-10.06c-.49-.44-.74-1.09-.7-1.75l.41-5.78c.04-.55.29-1.06.69-1.44l4.69-4.3c.74-.68.91-1.77.42-2.65l-3.67-6.53c-.27-.49-.35-1.06-.21-1.6l3.02-11.57c.03-.13.08-.26.14-.39l6.34-13.2c.1-.21.17-.44.2-.68l1.42-11.89c.16-1.38-1-2.55-2.38-2.4L40.81,28.13c-1.09.12-1.92,1.04-1.92,2.14Z"/>
      <path class="cls-1" d="M137.47,378.78c-.35.42-.7.8-.95,1.07s-.55.45-.89.57l-2.83.94c-.88.29-1.47,1.12-1.47,2.04v6.5c0,.32.07.63.21.92l1.99,4.2c.14.29.21.6.21.92v3.2c0,.7-.34,1.36-.91,1.76l-3.47,2.45c-.1.07-.19.15-.28.24l-3.04,3.04c-.66.66-.82,1.66-.4,2.49l.68,1.36c.45.89,1.44,1.36,2.41,1.14l3.49-.8c1.04-.24,2.09.31,2.49,1.3l.66,1.65c.17.41.45.76.83,1.01l4.03,2.62c.47.31,1.05.42,1.6.31l3.35-.67c.68-.14,1.39.14,1.79.72l.25.36c.56.81,1.6,1.13,2.52.78l1.31-.49c.84-.32,1.4-1.12,1.4-2.02v-8.15c0-.64-.35-1.23-.9-1.54l-.63-.35c-.54-.3-.88-.86-.9-1.48l-.21-6.31c-.01-.37-.12-.73-.31-1.05l-4.35-7.13c-.1-.17-.18-.35-.24-.55l-2.46-8.85c-.09-.31-.24-.59-.45-.83l-1.2-1.38c-.87-1-2.44-1.01-3.29.01Z"/>
      <path class="cls-1" d="M280.97,280.36l-2.19.42c-.89.17-1.58.88-1.72,1.77l-.76,4.63c-.07.4-.35.73-.74.86l-1.06.34c-.59.19-.9.83-.68,1.41l2.41,6.4c.05.12.11.24.17.36l8.68,14.29c.2.34.31.72.31,1.12v8.73c0,.81.45,1.55,1.17,1.92l7.22,3.7c.17.09.33.2.48.33l9.15,8.44c.4.37.92.57,1.46.57h3.34c.99,0,1.86-.68,2.09-1.65l.33-1.37c.17-.69-.01-1.41-.48-1.94l-2.4-2.71c-.64-.72-.72-1.77-.2-2.58l2.18-3.43c.04-.06.07-.11.1-.17.4-.78,3.54-6.89,3.95-6.58.28.21-.45-.94-1.03-1.82-.39-.6-1.06-.96-1.77-.97l-5.66-.08c-.68,0-1.32-.34-1.72-.9l-2.94-4.09c-.27-.38-.65-.65-1.1-.79l-4.62-1.47c-.81-.26-1.39-.96-1.49-1.81l-.22-1.88c-.06-.54.08-1.08.4-1.52l1.15-1.57c.3-.41.44-.91.41-1.42l-.1-1.56c-.04-.63-.35-1.2-.85-1.58l-6.94-5.23c-.25-.19-.45-.42-.6-.7l-3.46-6.41c-.45-.83-1.38-1.27-2.3-1.09Z"/>
      <path class="cls-1" d="M445.34,581.89l-.63.29c-.68.31-1.15.95-1.24,1.69l-.83,6.66c-.1.83.28,1.64.99,2.09l3.17,2c.7.44,1.08,1.25.99,2.07l-1.21,10.51c-.05.43-.23.84-.52,1.17l-.93,1.06c-.41.47-.6,1.09-.51,1.71l.45,3.31c.09.66.48,1.24,1.06,1.58l.68.39c.7.41,1.57.38,2.25-.06l4.24-2.75c.27-.18.5-.41.66-.68l2.6-4.25c.21-.34.32-.73.32-1.12v-8.03c0-.28-.06-.56-.16-.82l-2.5-6.06c-.04-.11-.1-.21-.16-.31l-5.96-9.61c-.57-.92-1.74-1.28-2.73-.82Z"/>
      <path class="cls-1" d="M508.89,703.1h-1.08c-.84,0-1.6.48-1.95,1.24l-3.63,7.73c-.11.24-.26.45-.45.63l-3.33,3.24c-.42.41-.65.96-.65,1.54v4.31c0,.36.09.71.26,1.02l2.04,3.81c.16.29.24.61.25.94l.15,3.9c.04,1,.76,1.84,1.74,2.03l2.67.52c.61.12,1.24-.03,1.73-.41l1.43-1.1c.5-.39.81-.97.84-1.6l.4-8.28c0-.11.02-.23.04-.34l.85-4.02c.03-.13.07-.25.12-.38l.69-1.68c.03-.06.05-.13.07-.2l1.03-3.4c.06-.2.09-.41.09-.63v-4.37c0-.33-.07-.65-.22-.94l-1.15-2.37c-.36-.74-1.11-1.21-1.94-1.21Z"/>
      <path class="cls-1" d="M529.22,744.59h-1.71c-.78,0-1.49.42-1.87,1.09l-1.72,3.02c-.09.16-.16.33-.21.51l-.92,3.43c-.16.58-.06,1.2.26,1.7l2.47,3.93c.04.07.09.13.14.19l7.82,9.85c.53.67,1.4.96,2.22.75l1.07-.27c.95-.24,1.62-1.1,1.62-2.09v-4.71c0-.31-.07-.62-.2-.9l-5.19-11.25-1.82-3.99c-.35-.77-1.12-1.26-1.96-1.26Z"/>
      <path class="cls-1" d="M381.36,731.87l-4.96-.42c-1.26-.11-2.34.89-2.34,2.15v3.2c0,.69.33,1.34.89,1.75l3.01,2.18c.07.05.14.1.21.14l7.78,4.33c.25.14.47.33.65.55l2.96,3.76c.33.42.84.67,1.38.67h.83c.64,0,1.23-.35,1.54-.91l2.1-3.82c.3-.55.35-1.2.13-1.78l-1.08-2.93c-.19-.51-.56-.93-1.04-1.18l-6.34-3.24c-.16-.08-.32-.19-.45-.31l-4.03-3.6c-.35-.31-.79-.5-1.25-.54Z"/>
    </g>
  </g>
</svg>