<?xml version="1.0" encoding="UTF-8"?>
<svg id="Capa_1" data-name="Capa 1" xmlns="http://www.w3.org/2000/svg" viewBox="0 0 44.27 27.33">
  <defs>
    <style>
      .cls-1 {
        fill: #fdf0e7;
        fill-rule: evenodd;
      }
    </style>
  </defs>
  <path class="cls-1" d="M22.13,0c13.28,0,21.96,13.66,21.96,13.66,0,0-8.68,13.66-21.96,13.66S.17,13.66.17,13.66C.17,13.66,8.85,0,22.13,0ZM22.13,3.9c5.39,0,9.76,4.37,9.76,9.76s-4.37,9.76-9.76,9.76-9.76-4.37-9.76-9.76S16.74,3.9,22.13,3.9h0ZM22.13,8.3c2.97,0,5.37,2.4,5.37,5.37s-2.4,5.37-5.37,5.37-5.37-2.4-5.37-5.37,2.4-5.37,5.37-5.37h0Z"/>
</svg>