<?xml version="1.0" encoding="UTF-8"?>
<svg id="Capa_1" data-name="Capa 1" xmlns="http://www.w3.org/2000/svg" viewBox="0 0 30.08 30.08">
  <defs>
    <style>
      .cls-1 {
        fill: #fdf0e7;
      }
    </style>
  </defs>
  <path class="cls-1" d="M7.4,1.95c-1.21,0-2.18.98-2.18,2.18v19.64c0,1.2.98,2.18,2.18,2.18h2.18v2.18l2.73-2.18,2.73,2.18v-2.18h7.64c1.21,0,2.18-.98,2.18-2.18v-1.09c0,1.2-.98,2.18-2.18,2.18h-7.64v-2.18h-5.46v2.18h-1.64c-.9,0-1.64-.76-1.64-1.64,0-.98.73-1.64,1.64-1.64h14.73c1.21,0,2.18-.98,2.18-2.18V4.13c0-1.2-.98-2.18-2.18-2.18H7.4Z"/>
</svg>