<?xml version="1.0" encoding="UTF-8"?>
<svg id="Capa_1" data-name="Capa 1" xmlns="http://www.w3.org/2000/svg" viewBox="0 0 432.66 441.78">
  <defs>
    <style>
      .cls-1 {
        fill: none;
        opacity: .67;
        stroke: #fff;
        stroke-miterlimit: 10;
        stroke-width: 2px;
      }
    </style>
  </defs>
  <path class="cls-1" d="M16.03,204.65l1.92-6.13c.92-2.94,1.58-5.96,1.98-9.01l2.73-20.93c.79-6.07,2.62-11.96,5.42-17.42l9.49-18.53c1.42-2.77,2.59-5.66,3.51-8.63h0c3.04-9.88,8.89-18.67,16.83-25.29l2.9-2.42c2.02-1.68,3.91-3.51,5.66-5.47l17.98-20.16c2.85-3.19,6.06-6.03,9.59-8.45l16.9-11.62c1.29-.89,2.54-1.83,3.75-2.83l6.68-5.52c5.84-4.82,12.63-8.34,19.93-10.34l15.22-4.15c4.57-1.25,9.29-1.88,14.03-1.88h7.84c5.56,0,11.09-.87,16.39-2.58l6.81-2.2c8.68-2.8,17.94-3.33,26.88-1.54l23.95,4.81,36.03,7.1c9.02,1.78,17.42,5.85,24.4,11.83l10.48,8.98,32.97,25.95c1.66,1.3,3.23,2.7,4.72,4.19l16.96,16.96c4.27,4.27,7.78,9.23,10.38,14.67l10.95,22.84c1.64,3.42,2.91,7,3.79,10.69l5.56,23.33c.44,1.86.79,3.75,1.03,5.65l5.39,42.6c.19,1.47.43,2.93.74,4.38l2.1,9.87c1.88,8.83,1.48,18-1.16,26.64l-11.05,36.23c-1.6,5.25-4.01,10.22-7.13,14.74l-15.25,22.09c-1.28,1.85-2.67,3.61-4.16,5.28l-24.65,27.52c-3.67,4.09-7.95,7.6-12.68,10.38l-15.2,8.94c-2.19,1.29-4.29,2.73-6.28,4.32l-7.95,6.36c-5.24,4.19-11.22,7.36-17.63,9.33l-18.18,5.59c-1.02.32-2.04.66-3.04,1.04l-13.58,5.09c-5.99,2.25-12.33,3.4-18.73,3.4h-19.38c-3.71,0-7.41.39-11.04,1.15l-2.6.55c-10.99,2.32-22.43,1.12-32.7-3.44l-10.08-4.48c-.85-.38-1.71-.74-2.59-1.07l-31.71-12.14c-1.63-.62-3.22-1.32-4.78-2.1l-17.12-8.56c-4.11-2.05-7.93-4.63-11.38-7.66l-13.66-12.02-13.77-11.4c-5.35-4.43-9.79-9.86-13.06-15.99l-7.12-13.35-23.02-38.25c-4.21-6.99-6.76-14.86-7.45-23l-1.67-19.67c-.2-2.38-.56-4.74-1.08-7.07l-2.17-9.77c-2.02-9.1-1.62-18.58,1.16-27.48Z"/>
</svg>