<?xml version="1.0" encoding="UTF-8"?>
<svg id="Capa_1" data-name="Capa 1" xmlns="http://www.w3.org/2000/svg" viewBox="0 0 432.66 441.78">
  <defs>
    <style>
      .cls-1 {
        fill: none;
        stroke: #fff;
        stroke-miterlimit: 10;
        stroke-width: 3px;
      }
    </style>
  </defs>
  <path class="cls-1" d="M8.85,204.07l1.99-6.35c.95-3.05,1.64-6.17,2.05-9.33l2.83-21.68c.82-6.29,2.72-12.39,5.61-18.04l9.83-19.19c1.47-2.87,2.68-5.86,3.63-8.94h0c3.15-10.24,9.21-19.34,17.44-26.19l3-2.5c2.09-1.74,4.05-3.64,5.86-5.67l18.63-20.88c2.95-3.31,6.28-6.24,9.93-8.75l17.5-12.03c1.34-.92,2.63-1.9,3.89-2.93l6.92-5.72c6.05-4.99,13.08-8.64,20.65-10.71l15.76-4.3c4.74-1.29,9.63-1.95,14.54-1.95h8.13c5.76,0,11.49-.9,16.97-2.67l7.05-2.28c8.99-2.9,18.58-3.45,27.84-1.59l24.81,4.98,37.32,7.35c9.34,1.84,18.05,6.06,25.28,12.26l10.85,9.3,34.15,26.88c1.72,1.35,3.35,2.8,4.89,4.34l17.57,17.57c4.42,4.42,8.06,9.56,10.76,15.19l11.34,23.66c1.7,3.54,3.01,7.26,3.92,11.08l5.75,24.17c.46,1.93.82,3.89,1.06,5.86l5.59,44.12c.19,1.52.45,3.03.77,4.54l2.17,10.22c1.94,9.15,1.53,18.65-1.2,27.59l-11.45,37.53c-1.66,5.44-4.15,10.59-7.38,15.27l-15.8,22.88c-1.32,1.91-2.76,3.74-4.31,5.47l-25.54,28.51c-3.8,4.24-8.23,7.87-13.14,10.76l-15.75,9.26c-2.27,1.34-4.44,2.83-6.5,4.48l-8.23,6.58c-5.43,4.34-11.62,7.62-18.26,9.66l-18.83,5.79c-1.06.33-2.11.68-3.15,1.07l-14.06,5.27c-6.2,2.33-12.77,3.52-19.4,3.52h-20.07c-3.84,0-7.67.4-11.43,1.2l-2.69.57c-11.38,2.41-23.24,1.16-33.87-3.57l-10.45-4.64c-.88-.39-1.78-.76-2.68-1.11l-32.84-12.58c-1.68-.64-3.34-1.37-4.95-2.18l-17.74-8.87c-4.26-2.13-8.22-4.8-11.79-7.94l-14.15-12.46-14.26-11.8c-5.54-4.59-10.14-10.21-13.52-16.56l-7.37-13.83-23.85-39.62c-4.36-7.25-7-15.39-7.71-23.82l-1.73-20.37c-.21-2.46-.58-4.91-1.12-7.32l-2.25-10.12c-2.1-9.43-1.68-19.24,1.2-28.46Z"/>
</svg>