<?xml version="1.0" encoding="UTF-8"?>
<svg id="Capa_1" data-name="Capa 1" xmlns="http://www.w3.org/2000/svg" viewBox="0 0 432.66 441.78">
  <defs>
    <style>
      .cls-1 {
        opacity: .33;
        stroke-width: 1.15px;
      }

      .cls-1, .cls-2 {
        fill: none;
        stroke: #fff;
        stroke-miterlimit: 10;
      }

      .cls-2 {
        opacity: 0;
        stroke-width: .43px;
      }
    </style>
  </defs>
  <path class="cls-1" d="M23.22,205.23l1.85-5.91c.89-2.83,1.52-5.74,1.91-8.69l2.63-20.18c.76-5.86,2.53-11.54,5.22-16.79l9.15-17.86c1.37-2.67,2.5-5.45,3.38-8.32h0c2.93-9.53,8.57-18,16.23-24.38l2.8-2.33c1.95-1.62,3.77-3.39,5.46-5.28l17.34-19.44c2.74-3.08,5.85-5.81,9.24-8.15l16.29-11.2c1.25-.86,2.45-1.77,3.62-2.73l6.44-5.32c5.63-4.65,12.18-8.05,19.22-9.97l14.67-4c4.41-1.2,8.96-1.81,13.53-1.81h7.56c5.36,0,10.69-.84,15.8-2.49l6.56-2.12c8.37-2.7,17.29-3.21,25.92-1.48l23.09,4.63,34.74,6.84c8.69,1.71,16.8,5.64,23.53,11.41l10.1,8.66,31.78,25.02c1.6,1.26,3.12,2.61,4.55,4.04l16.36,16.36c4.11,4.11,7.5,8.89,10.01,14.14l10.55,22.02c1.58,3.3,2.8,6.75,3.65,10.31l5.36,22.5c.43,1.8.76,3.62.99,5.45l5.2,41.07c.18,1.42.42,2.82.71,4.22l2.02,9.52c1.81,8.52,1.42,17.35-1.12,25.68l-10.66,34.93c-1.54,5.06-3.86,9.86-6.87,14.21l-14.71,21.3c-1.23,1.78-2.57,3.48-4.01,5.09l-23.77,26.53c-3.54,3.95-7.66,7.32-12.23,10.01l-14.66,8.62c-2.11,1.24-4.14,2.64-6.05,4.17l-7.66,6.13c-5.05,4.04-10.82,7.09-17,8.99l-17.52,5.39c-.99.3-1.97.64-2.93,1l-13.09,4.91c-5.77,2.16-11.89,3.27-18.05,3.27h-18.68c-3.58,0-7.14.37-10.64,1.11l-2.5.53c-10.6,2.24-21.63,1.08-31.53-3.32l-9.72-4.32c-.82-.37-1.65-.71-2.49-1.03l-30.57-11.71c-1.57-.6-3.1-1.28-4.61-2.03l-16.51-8.25c-3.96-1.98-7.65-4.46-10.97-7.39l-13.17-11.59-13.28-10.99c-5.16-4.27-9.44-9.51-12.59-15.42l-6.86-12.87-22.19-36.88c-4.06-6.74-6.51-14.33-7.18-22.17l-1.61-18.96c-.19-2.29-.54-4.57-1.04-6.81l-2.09-9.41c-1.95-8.78-1.57-17.91,1.12-26.49Z"/>
  <path class="cls-2" d="M30.4,205.82l1.78-5.69c.85-2.73,1.47-5.53,1.84-8.36l2.53-19.43c.74-5.64,2.44-11.11,5.03-16.17l8.81-17.2c1.32-2.57,2.41-5.25,3.25-8.01h0c2.82-9.17,8.25-17.33,15.62-23.47l2.69-2.24c1.87-1.56,3.63-3.26,5.25-5.08l16.69-18.71c2.64-2.96,5.63-5.59,8.9-7.84l15.68-10.78c1.2-.82,2.36-1.7,3.48-2.63l6.2-5.12c5.42-4.48,11.72-7.75,18.5-9.59l14.13-3.85c4.25-1.16,8.63-1.74,13.03-1.74h7.28c5.16,0,10.3-.81,15.21-2.39l6.32-2.04c8.06-2.6,16.65-3.09,24.95-1.43l22.23,4.46,33.44,6.59c8.37,1.65,16.17,5.43,22.65,10.99l9.72,8.33,30.6,24.09c1.54,1.21,3,2.51,4.38,3.89l15.75,15.75c3.96,3.96,7.22,8.56,9.64,13.61l10.16,21.2c1.52,3.17,2.7,6.5,3.51,9.93l5.16,21.66c.41,1.73.73,3.48.95,5.25l5.01,39.54c.17,1.36.4,2.72.69,4.06l1.95,9.16c1.74,8.2,1.37,16.71-1.07,24.73l-10.26,33.63c-1.49,4.88-3.72,9.49-6.61,13.69l-14.16,20.5c-1.18,1.71-2.47,3.35-3.86,4.9l-22.88,25.54c-3.4,3.8-7.38,7.05-11.77,9.64l-14.11,8.3c-2.04,1.2-3.98,2.54-5.83,4.01l-7.38,5.9c-4.86,3.89-10.42,6.83-16.37,8.66l-16.87,5.19c-.95.29-1.89.61-2.82.96l-12.6,4.73c-5.56,2.08-11.45,3.15-17.38,3.15h-17.99c-3.44,0-6.88.36-10.25,1.07l-2.41.51c-10.2,2.16-20.82,1.04-30.35-3.2l-9.36-4.16c-.79-.35-1.59-.68-2.4-.99l-29.43-11.27c-1.51-.58-2.99-1.23-4.43-1.95l-15.89-7.95c-3.81-1.91-7.36-4.3-10.57-7.11l-12.68-11.16-12.78-10.58c-4.97-4.11-9.08-9.15-12.12-14.84l-6.61-12.39-21.37-35.51c-3.91-6.49-6.27-13.8-6.91-21.35l-1.55-18.25c-.19-2.21-.52-4.4-1-6.56l-2.01-9.06c-1.88-8.45-1.51-17.24,1.07-25.51Z"/>
</svg>